<?xml version="1.0" standalone="no"?>
<!DOCTYPE svg PUBLIC "-//W3C//DTD SVG 20010904//EN"
 "http://www.w3.org/TR/2001/REC-SVG-20010904/DTD/svg10.dtd">
<svg version="1.0" xmlns="http://www.w3.org/2000/svg"
 width="343.000000pt" height="343.000000pt" viewBox="0 0 343.000000 343.000000"
 preserveAspectRatio="xMidYMid meet">

<g transform="translate(0.000000,343.000000) scale(0.100000,-0.100000)"
fill="#000000" stroke="none">
<path d="M1490 3416 c-401 -58 -737 -229 -1012 -514 -571 -592 -636 -1493
-158 -2175 80 -114 277 -312 388 -391 221 -157 469 -258 752 -308 109 -19 412
-16 526 5 377 70 668 221 929 482 177 177 297 357 384 581 246 622 107 1325
-357 1806 -247 256 -546 421 -896 494 -153 31 -411 41 -556 20z m117 -166 c1
-58 2 -111 2 -117 1 -9 20 -13 61 -13 l60 0 0 -44 0 -44 -67 -7 c-38 -3 -82
-8 -100 -11 -17 -2 -34 0 -38 6 -4 6 -13 7 -23 1 -22 -12 -181 -46 -186 -40
-9 9 -48 308 -43 323 6 16 77 24 77 9 2 -32 29 -216 33 -220 3 -3 29 0 58 6
28 6 54 9 57 7 2 -3 8 -20 12 -38 5 -21 8 22 9 118 1 164 5 177 56 172 l30 -3
2 -105z m370 66 c41 -48 25 -141 -30 -175 -11 -7 -41 -16 -66 -20 -46 -6 -46
-7 -55 -54 -8 -42 -12 -47 -35 -47 -51 0 -53 7 -36 121 30 205 26 193 65 201
19 3 57 5 84 3 40 -2 55 -8 73 -29z m189 -9 c2 -2 -3 -28 -13 -58 -9 -30 -28
-101 -43 -159 l-27 -105 -38 2 c-21 2 -40 5 -43 7 -12 13 64 276 85 291 10 7
13 17 8 25 -6 10 0 12 30 7 20 -3 39 -8 41 -10z m128 -40 c13 -10 21 -32 25
-78 l6 -64 24 58 c13 31 24 57 26 57 14 0 65 -24 65 -31 0 -5 -18 -53 -39
-106 -21 -54 -47 -119 -56 -145 -17 -50 -26 -55 -69 -38 -21 8 -26 16 -27 47
0 21 -4 58 -8 83 l-7 45 -22 -60 c-13 -33 -25 -65 -27 -72 -4 -13 -60 -2 -77
15 -5 5 19 74 54 155 58 134 65 147 89 147 14 0 33 -6 43 -13z m-1126 -11 c57
-29 106 -177 83 -249 -28 -82 -112 -109 -170 -53 -61 58 -82 225 -35 277 35
39 78 48 122 25z m-222 -142 c59 -62 77 -167 42 -241 -12 -25 -98 -93 -118
-93 -6 0 -73 135 -118 241 l-20 47 31 30 c45 41 66 51 111 52 32 0 45 -6 72
-36z m1681 6 c38 -23 50 -59 33 -100 -13 -33 -34 -37 -64 -15 -13 10 -17 21
-12 40 6 22 4 26 -11 23 -26 -5 -27 -40 -4 -87 12 -22 21 -51 21 -65 0 -31
-42 -82 -76 -90 -35 -9 -107 27 -136 66 l-21 31 22 18 c30 25 33 24 59 -11 24
-32 49 -39 58 -16 3 8 -7 37 -21 66 -31 61 -28 89 15 131 35 35 89 39 137 9z
m-782 -140 c140 -15 230 -38 350 -89 239 -101 438 -268 579 -484 55 -85 121
-229 150 -328 85 -294 54 -645 -79 -910 -37 -73 -44 -76 -63 -24 -46 131 -66
171 -113 229 -30 37 -64 69 -81 75 -16 6 -51 26 -78 46 -26 19 -52 35 -58 35
-5 0 -21 15 -36 34 -14 19 -35 38 -46 41 -11 4 -44 29 -72 56 -59 57 -88 68
-121 46 -46 -31 -145 -134 -183 -192 -21 -33 -68 -87 -102 -119 -35 -33 -78
-80 -95 -105 -36 -54 -48 -64 -61 -51 -19 19 -29 10 -12 -9 20 -22 7 -36 -24
-26 -12 4 -20 2 -20 -5 0 -27 -19 4 -26 43 -6 38 -8 40 -17 20 -24 -54 -37 3
-22 94 6 36 4 46 -16 70 -24 29 -24 29 -41 9 -22 -28 -30 -17 -18 24 5 18 7
30 4 27 -12 -11 -35 23 -41 58 -3 20 -11 35 -19 35 -7 0 -31 19 -54 42 -35 37
-40 40 -40 20 0 -15 9 -26 25 -32 14 -5 25 -17 25 -28 0 -30 -172 -195 -235
-228 -64 -32 -135 -89 -135 -109 0 -8 17 -26 38 -41 20 -16 48 -38 63 -51 l25
-23 -38 -77 c-21 -43 -38 -88 -38 -100 0 -36 -76 -265 -97 -292 -7 -10 -118
75 -199 152 -190 181 -327 430 -369 675 -22 124 -20 367 4 489 48 246 162 457
345 639 280 279 647 407 1041 364z m-1526 -656 l143 -45 -4 -74 c-3 -62 -7
-78 -28 -100 -22 -24 -31 -26 -78 -23 -80 7 -122 59 -122 155 0 29 -4 33 -40
44 -25 8 -40 18 -40 28 0 25 12 61 19 61 4 0 71 -21 150 -46z m2915 -4 c35
-13 56 -59 56 -124 0 -61 -4 -66 -42 -59 -24 5 -26 9 -25 51 2 40 -1 47 -18
47 -14 0 -24 -14 -40 -55 -31 -83 -93 -107 -163 -63 -31 19 -55 77 -47 114 7
29 47 59 79 59 11 0 42 -59 34 -65 -2 -1 -14 -8 -27 -15 -15 -8 -20 -15 -13
-22 21 -21 51 2 67 51 26 78 73 106 139 81z m-2931 -281 c34 -6 72 -21 85 -32
13 -12 22 -16 22 -8 0 7 4 10 8 7 11 -6 2 -76 -9 -76 -5 0 -65 11 -132 24 -67
13 -139 27 -160 31 -37 6 -38 6 -31 43 4 20 8 40 10 43 2 4 36 1 74 -7 39 -7
99 -18 133 -25z m3027 -36 c6 -32 15 -78 20 -103 5 -25 5 -49 1 -53 -11 -11
-196 -29 -267 -25 l-59 3 -17 95 c-9 52 -15 101 -13 108 2 6 20 12 39 12 34 0
34 0 51 -70 11 -43 22 -70 30 -70 21 0 24 11 15 60 -9 49 -2 60 38 60 24 0 25
-2 42 -67 6 -25 17 -43 25 -43 23 0 25 14 14 74 -5 31 -7 61 -4 66 3 6 21 10
40 10 33 0 34 -1 45 -57z m-3060 -94 c63 -6 119 -14 123 -19 5 -4 7 -25 5 -46
-3 -37 -6 -40 -55 -58 -29 -10 -53 -22 -53 -27 0 -4 24 -9 53 -11 l52 -3 0
-35 0 -35 -85 2 c-47 2 -122 5 -167 9 l-83 6 0 33 c0 40 8 47 94 75 80 26 73
40 -21 40 -34 0 -65 4 -68 10 -3 5 -3 26 1 45 6 35 7 36 48 31 22 -3 93 -11
156 -17z m2945 -142 l140 -12 3 -36 3 -36 -75 -27 c-42 -16 -76 -32 -76 -37 0
-4 33 -9 73 -11 l72 -3 -2 -39 c-2 -22 -5 -41 -7 -43 -2 -2 -76 4 -165 13
l-161 17 0 37 c0 43 18 62 73 80 47 15 38 28 -23 32 -38 3 -45 6 -48 26 -5 35
5 52 30 51 13 0 86 -6 163 -12z m-2803 -237 c9 -52 15 -101 13 -107 -2 -7 -20
-13 -39 -13 -34 0 -34 0 -51 71 -14 54 -21 69 -34 67 -9 -2 -15 -12 -14 -23 9
-95 10 -90 -25 -93 -34 -3 -34 -4 -52 66 -8 32 -15 42 -28 40 -14 -3 -16 -12
-13 -48 9 -97 10 -95 -31 -98 -21 -2 -38 -2 -38 0 -1 2 -9 48 -19 103 -11 55
-15 104 -11 108 10 11 165 25 255 23 l70 -1 17 -95z m2034 -37 c-6 -6 -36 9
-36 18 0 5 9 4 20 -3 10 -7 18 -14 16 -15z m643 13 c31 -8 100 -22 154 -31
l99 -18 -7 -36 c-4 -20 -10 -39 -13 -43 -4 -3 -65 5 -137 19 -94 18 -136 30
-152 45 -14 13 -23 16 -23 9 0 -7 -4 -10 -8 -7 -4 3 -6 21 -4 40 5 41 9 42 91
22z m-569 -51 c0 -12 -19 -12 -23 0 -4 9 -1 12 9 8 7 -3 14 -7 14 -8z m-995
-77 c-15 -64 -14 -102 3 -116 15 -12 15 -13 1 -9 -14 5 -16 -2 -12 -45 2 -28
11 -57 19 -65 8 -8 14 -19 14 -25 0 -6 13 -24 30 -39 l30 -29 -25 0 c-14 0
-25 6 -26 13 0 10 -2 10 -6 0 -2 -7 -9 -13 -14 -13 -6 0 -7 5 -3 11 4 7 1 10
-7 7 -8 -3 -18 -27 -22 -56 -5 -29 -12 -52 -16 -52 -7 0 -20 121 -26 237 -4
81 29 203 55 203 6 0 8 -10 5 -22z m75 12 c12 -7 12 -12 0 -35 -13 -24 -15
-25 -21 -8 -10 24 -11 53 -1 53 4 0 14 -4 22 -10z m1545 -50 c27 -25 45 -76
45 -127 0 -29 4 -33 41 -44 39 -12 41 -14 35 -47 -3 -19 -7 -37 -10 -39 -3 -3
-69 15 -148 39 l-143 44 0 78 c0 74 2 79 29 103 25 21 37 24 78 21 32 -4 57
-13 73 -28z m-2716 -18 c57 -57 47 -143 -20 -157 -35 -8 -44 -2 -53 36 -4 21
-1 28 20 38 25 11 25 31 0 31 -19 0 -42 -30 -55 -72 -29 -90 -135 -107 -176
-28 -16 32 -21 135 -6 144 5 4 20 2 33 -3 19 -7 23 -15 23 -52 0 -37 3 -44 20
-44 14 0 24 13 38 50 23 65 48 85 104 85 35 0 50 -6 72 -28z m2188 6 c-3 -8
-6 -5 -6 6 -1 11 2 17 5 13 3 -3 4 -12 1 -19z m-103 -70 c-16 -12 -32 -27 -36
-33 -5 -6 -8 -6 -8 0 0 12 49 55 63 55 5 0 -3 -10 -19 -22z m-276 -20 c30 -30
-6 -88 -53 -88 -33 0 -55 41 -34 66 25 30 68 41 87 22z m-604 -85 c28 -16 53
-29 55 -30 2 -1 -4 -14 -13 -28 -18 -28 -56 -34 -56 -9 0 14 3 14 15 4 9 -8
15 -8 15 -2 0 26 -14 42 -36 42 -13 0 -28 9 -34 19 -21 39 -14 40 54 4z m755
-40 c-43 -47 -63 -63 -69 -56 -5 5 87 93 98 93 3 0 -10 -17 -29 -37z m110
-105 c0 -29 2 -84 4 -123 5 -63 5 -64 -1 -9 -4 34 -12 67 -18 75 -21 26 -11
109 12 109 3 0 4 -24 3 -52z m-955 6 c11 -28 6 -61 -9 -74 -22 -19 -27 -8 -20
44 7 47 18 58 29 30z m86 -4 c0 -5 -4 -10 -9 -10 -6 0 -13 5 -16 10 -3 6 1 10
9 10 9 0 16 -4 16 -10z m641 -51 c-7 -18 -10 -20 -10 -6 -1 10 -5 15 -11 12
-5 -3 -10 -2 -10 4 0 16 18 22 23 9 3 -7 6 -2 7 12 1 14 4 18 7 9 2 -8 -1 -26
-6 -40z m-1011 31 c0 -5 -5 -10 -11 -10 -5 0 -7 5 -4 10 3 6 8 10 11 10 2 0 4
-4 4 -10z m355 -10 c-3 -5 -13 -10 -21 -10 -8 0 -14 5 -14 10 0 6 9 10 21 10
11 0 17 -4 14 -10z m362 -35 c-10 -7 -14 -19 -10 -34 5 -21 4 -22 -15 -12 -37
20 -36 37 3 59 25 13 43 3 22 -13z m-377 0 c0 -9 -9 -15 -25 -15 -26 0 -34 15
-12 23 23 10 37 7 37 -8z m890 -72 c0 -26 -3 -34 -11 -26 -9 9 -3 63 7 63 2 0
4 -17 4 -37z m-1192 7 c12 -11 25 -20 29 -20 5 0 9 -19 8 -42 0 -39 -3 -43
-44 -65 -49 -25 -61 -28 -61 -13 0 6 10 10 21 10 19 0 20 2 8 16 -8 10 -15 12
-17 5 -2 -6 -8 -11 -14 -11 -6 0 -7 7 -4 16 3 8 2 12 -4 9 -6 -3 -10 -13 -10
-21 0 -9 -6 -14 -12 -11 -7 2 -12 14 -10 27 1 12 -3 29 -10 37 -9 11 -8 18 5
30 19 19 35 10 19 -10 -14 -16 -6 -27 20 -27 22 0 24 32 3 50 -20 16 -19 27 3
33 35 9 49 7 70 -13z m218 -41 c-3 -17 -6 -39 -7 -48 0 -13 -2 -12 -8 3 -9 24
-2 76 11 76 6 0 8 -13 4 -31z m-356 -9 c0 -5 -4 -10 -10 -10 -5 0 -10 5 -10
10 0 6 5 10 10 10 6 0 10 -4 10 -10z m1038 -34 c-10 -7 -14 -17 -10 -21 4 -5
1 -5 -6 -1 -10 6 -11 1 -7 -21 4 -22 3 -24 -4 -8 -8 18 -9 17 -13 -10 -5 -28
-5 -28 -7 -4 -1 28 33 79 52 79 7 0 4 -7 -5 -14z m308 -2 c-3 -9 -6 -22 -6
-29 0 -8 -13 -23 -29 -35 l-30 -20 9 31 c10 34 37 69 53 69 5 0 6 -7 3 -16z
m-1146 -41 c-1 -19 -18 -33 -34 -27 -15 6 -14 8 6 19 29 17 28 16 28 8z m-206
-12 c3 -5 -3 -11 -14 -14 -13 -3 -20 0 -20 9 0 15 26 19 34 5z m346 -41 c0 -5
-4 -10 -10 -10 -5 0 -10 5 -10 10 0 6 5 10 10 10 6 0 10 -4 10 -10z m-217 -26
c8 -8 -3 -34 -14 -34 -5 0 -9 9 -9 20 0 19 11 26 23 14z m-339 -34 c68 -26 90
-56 83 -117 -10 -88 -92 -173 -176 -181 -50 -4 -141 26 -141 47 0 5 15 36 34
68 18 32 52 91 75 131 23 39 48 72 56 72 8 0 39 -9 69 -20z m1675 -16 c28 -36
26 -58 -6 -73 -24 -11 -29 -10 -44 8 -22 27 -29 26 -29 -3 0 -26 8 -30 75 -42
56 -9 95 -48 95 -94 0 -66 -53 -110 -135 -110 -43 0 -45 1 -45 29 0 26 4 29
41 34 23 3 46 10 52 16 14 14 -9 41 -37 41 -43 0 -97 22 -112 45 -35 54 -16
132 40 159 47 23 81 20 105 -10z m-229 -78 c0 -8 18 -74 41 -148 22 -73 41
-137 42 -142 1 -4 -15 -14 -35 -21 l-37 -14 -52 65 c-29 35 -54 62 -56 60 -3
-2 5 -34 16 -71 12 -37 21 -70 21 -74 0 -9 -72 -32 -78 -26 -6 6 -82 296 -82
312 0 6 16 17 36 23 35 12 37 11 85 -36 l48 -47 -14 54 c-13 49 -13 55 2 67
23 17 63 15 63 -2z m-1153 -21 c65 -46 40 -197 -47 -280 -25 -24 -40 -30 -75
-30 -100 0 -131 100 -70 220 18 35 44 69 64 82 39 27 96 30 128 8z m180 -48
c2 -3 -8 -54 -22 -115 -14 -61 -25 -113 -25 -116 0 -3 22 -8 49 -12 66 -9 71
-13 62 -54 -5 -28 -12 -36 -33 -38 -31 -4 -167 14 -176 22 -5 5 29 171 60 290
9 37 11 38 45 33 19 -4 37 -8 40 -10z m208 3 c3 -5 -1 -10 -9 -10 -8 0 -18 5
-21 10 -3 6 1 10 9 10 8 0 18 -4 21 -10z m537 -153 c14 -89 25 -164 23 -165
-9 -9 -76 -19 -80 -12 -3 5 -15 66 -26 136 -17 98 -19 135 -11 156 9 24 8 28
-6 29 -26 1 17 17 48 18 25 1 25 -2 52 -162z m-533 123 c11 0 12 -17 6 -92 -4
-51 -8 -104 -9 -118 -1 -23 3 -25 54 -30 l55 -5 3 -41 3 -41 -98 -6 c-53 -4
-100 -3 -104 1 -8 7 16 305 26 331 3 8 13 11 28 7 12 -3 28 -6 36 -6z m335 -1
c29 -14 56 -64 56 -106 0 -47 -36 -93 -91 -116 l-49 -21 0 -48 0 -48 -39 0
-39 0 -7 151 c-4 83 -3 154 1 159 11 10 102 38 126 39 9 1 28 -4 42 -10z"/>
<path d="M1857 3264 c-4 -4 -7 -23 -7 -41 0 -31 2 -34 23 -27 34 10 48 25 45
48 -3 21 -46 35 -61 20z"/>
<path d="M1750 3054 c0 -8 5 -12 10 -9 6 3 10 10 10 16 0 5 -4 9 -10 9 -5 0
-10 -7 -10 -16z"/>
<path d="M1107 3193 c-19 -18 9 -173 34 -188 5 -4 17 -1 25 6 19 16 12 83 -16
147 -18 40 -29 50 -43 35z"/>
<path d="M840 3055 c-11 -13 -7 -27 18 -83 17 -37 36 -68 42 -70 17 -6 28 42
20 86 -12 68 -52 101 -80 67z"/>
<path d="M1835 2634 c-22 -9 -64 -27 -93 -41 -62 -29 -96 -25 -67 7 35 39 -1
19 -64 -35 -36 -30 -67 -53 -69 -50 -9 9 -32 -17 -25 -28 4 -7 0 -8 -13 -2
-10 4 -28 8 -39 9 -11 0 -28 10 -38 23 -10 13 -28 28 -40 34 -14 7 -7 -4 18
-30 32 -34 37 -44 25 -51 -10 -6 -21 -1 -37 18 -13 15 -23 30 -23 35 0 4 -3 7
-7 7 -5 0 -8 -17 -7 -37 1 -32 -4 -41 -27 -55 -16 -10 -29 -23 -29 -29 0 -6
12 -1 26 10 14 11 40 20 57 20 18 -1 49 6 70 15 21 9 47 14 57 11 11 -3 30 -1
42 6 13 7 45 13 72 14 41 1 53 6 72 30 25 32 42 29 25 -3 -14 -27 -15 -53 -1
-32 8 12 12 12 18 2 6 -9 16 -10 33 -4 18 7 27 5 36 -7 10 -14 13 -13 21 9 6
14 18 32 28 40 18 14 18 14 2 -6 -19 -22 -24 -44 -9 -44 5 0 12 6 15 13 5 10
7 10 12 0 3 -7 15 -13 26 -13 14 0 18 5 14 18 -5 14 0 17 24 17 17 0 30 -3 30
-7 0 -5 -5 -8 -10 -8 -6 0 -18 -15 -27 -34 -9 -19 -24 -37 -34 -39 -15 -4 -19
-15 -19 -46 0 -23 5 -41 10 -41 6 0 10 13 10 29 0 20 6 30 20 34 11 3 22 17
26 33 12 49 71 99 138 114 25 7 27 8 7 9 -20 1 -21 3 -11 16 7 8 18 15 25 15
7 0 18 7 26 16 11 13 9 14 -17 9 -39 -10 -129 -50 -163 -74 -17 -12 -32 -16
-41 -11 -20 12 42 86 85 102 19 6 35 15 35 20 0 4 -17 1 -38 -6 -71 -25 -127
-58 -169 -99 -24 -22 -46 -38 -49 -34 -4 4 -1 13 5 21 8 10 9 16 2 21 -16 9
26 61 61 76 15 6 31 16 34 20 6 11 8 11 -41 -7z"/>
<path d="M1328 2549 c-10 -5 -18 -14 -18 -19 0 -17 15 -11 28 10 14 23 13 23
-10 9z"/>
<path d="M2085 2515 c-78 -32 -95 -53 -95 -121 0 -41 -4 -56 -20 -67 -26 -18
-41 -59 -29 -80 12 -20 49 -23 49 -4 0 7 8 22 19 33 10 11 18 31 17 43 -1 13
5 26 13 29 11 4 13 -5 8 -44 -4 -43 -4 -47 9 -29 18 25 18 45 -2 73 -9 13 -13
26 -9 30 3 3 11 0 16 -8 9 -13 10 -13 5 0 -3 8 -9 23 -12 33 -4 9 -10 17 -15
17 -15 0 2 54 23 72 11 10 35 20 54 24 19 3 34 10 34 15 0 11 5 13 -65 -16z"/>
<path d="M2205 2493 c11 -69 11 -144 0 -177 -20 -56 -97 -126 -141 -126 -11 0
-29 -9 -39 -20 -24 -26 -34 -25 -28 3 5 17 3 19 -7 11 -16 -16 -18 -76 -2 -81
7 -3 10 1 6 10 -3 10 2 18 16 22 29 9 37 -1 22 -26 -12 -18 -11 -19 7 -10 31
17 38 12 12 -9 -26 -22 -53 -25 -82 -9 -18 9 -19 17 -14 52 4 23 12 48 18 55
5 7 7 16 3 20 -13 12 -35 -28 -42 -75 -5 -34 -3 -49 9 -60 20 -20 84 -20 124
1 29 14 31 19 26 51 -4 23 -2 35 6 35 6 0 11 -7 11 -15 0 -8 5 -15 10 -15 6 0
10 -11 10 -24 0 -14 11 -33 26 -45 14 -11 23 -25 20 -30 -10 -15 26 -30 49
-20 17 6 17 8 3 8 -19 1 -24 16 -9 26 6 3 29 1 53 -4 23 -6 44 -8 46 -6 2 2
-19 14 -47 27 -28 12 -51 26 -51 30 0 10 -27 10 -33 1 -2 -5 -2 -2 -1 4 2 7
-6 17 -16 23 -11 6 -20 17 -20 25 0 20 54 55 95 62 35 6 35 6 14 21 -13 9 -32
16 -43 17 -32 2 -30 23 7 60 19 19 31 36 27 37 -14 5 -16 42 -2 44 6 1 17 2
22 3 22 2 9 21 -15 21 -25 0 -26 2 -29 67 -1 10 10 23 24 30 25 12 24 13 -12
13 -35 0 -37 -2 -33 -27z m-15 -253 c0 -5 -5 -10 -11 -10 -5 0 -7 5 -4 10 3 6
8 10 11 10 2 0 4 -4 4 -10z m-40 -35 c-7 -8 -18 -15 -24 -15 -6 0 -2 7 8 15
25 19 32 19 16 0z"/>
<path d="M1296 2493 c-6 -14 -5 -15 5 -6 7 7 10 15 7 18 -3 3 -9 -2 -12 -12z"/>
<path d="M1240 2421 c-8 -5 -28 -15 -45 -22 -16 -7 -43 -24 -58 -36 -16 -13
-35 -23 -43 -23 -8 0 -14 -4 -14 -9 0 -5 -10 -12 -22 -15 -28 -8 -63 -34 -56
-41 3 -3 27 8 54 24 26 17 52 31 57 31 5 0 29 14 54 30 24 17 48 30 53 30 5 0
24 9 42 20 26 15 28 20 13 19 -11 0 -27 -4 -35 -8z"/>
<path d="M2086 2417 c3 -10 9 -15 12 -12 3 3 0 11 -7 18 -10 9 -11 8 -5 -6z"/>
<path d="M1810 2411 c0 -12 28 -22 35 -12 3 5 -2 12 -11 15 -21 8 -24 8 -24
-3z"/>
<path d="M1550 2400 c0 -5 5 -10 10 -10 6 0 10 5 10 10 0 6 -4 10 -10 10 -5 0
-10 -4 -10 -10z"/>
<path d="M1420 2370 c-19 -16 -30 -30 -24 -30 6 0 19 10 30 21 10 12 28 25 39
30 13 5 15 8 5 8 -8 0 -31 -13 -50 -29z"/>
<path d="M1458 2345 c-16 -9 -28 -22 -28 -29 0 -8 -9 -16 -21 -19 -20 -5 -20
-6 -3 -32 9 -14 19 -23 22 -21 3 3 -1 12 -7 20 -8 10 -9 16 -1 21 5 3 10 3 10
-2 0 -4 20 -21 44 -36 36 -23 54 -27 95 -25 28 2 51 6 51 9 0 15 -41 97 -54
108 -23 20 -79 23 -108 6z m38 -10 c-11 -8 -25 -15 -30 -15 -6 0 -2 7 8 15 11
8 25 15 30 15 6 0 2 -7 -8 -15z"/>
<path d="M2128 2335 c-3 -14 -1 -22 5 -18 5 3 13 -1 18 -8 6 -11 9 -10 15 4 6
17 -11 47 -26 47 -4 0 -10 -11 -12 -25z"/>
<path d="M915 2250 c-24 -25 -30 -40 -31 -83 -1 -29 -7 -68 -13 -87 -6 -19
-11 -47 -11 -62 0 -62 102 -185 143 -172 16 5 19 3 13 -11 -4 -12 7 -29 41
-60 26 -24 49 -42 51 -40 8 7 -19 45 -33 45 -16 0 -30 18 -21 27 3 3 14 0 23
-8 15 -12 15 -11 -1 8 -17 21 -17 23 -2 29 10 4 25 -1 37 -12 19 -17 19 -19 3
-31 -29 -21 95 -15 126 7 37 26 82 31 103 13 33 -30 30 -4 -3 27 l-34 31 -101
-5 c-84 -4 -106 -2 -127 12 -38 26 -52 44 -68 86 -17 44 -47 65 -35 25 16 -52
37 -87 60 -97 27 -12 34 -32 11 -32 -59 0 -123 38 -112 67 4 9 2 11 -6 7 -8
-5 -9 -2 -5 9 4 11 1 17 -7 17 -22 0 -35 76 -20 114 9 24 33 19 40 -9 3 -13
13 -30 22 -37 14 -11 15 -10 8 7 -5 11 -11 39 -13 63 -6 43 -23 69 -23 35 -1
-17 -1 -17 -11 0 -22 37 16 123 61 140 9 3 5 6 -11 6 -16 1 -36 -10 -54 -29z
m345 -406 c0 -2 -7 -4 -15 -4 -8 0 -15 4 -15 10 0 5 7 7 15 4 8 -4 15 -8 15
-10z m45 6 c3 -5 2 -10 -4 -10 -5 0 -13 5 -16 10 -3 6 -2 10 4 10 5 0 13 -4
16 -10z m-114 -10 c29 -16 24 -40 -9 -40 -43 0 -70 34 -34 43 9 3 18 5 20 6 2
0 12 -4 23 -9z"/>
<path d="M1015 2250 c3 -5 10 -10 16 -10 5 0 9 5 9 10 0 6 -7 10 -16 10 -8 0
-12 -4 -9 -10z"/>
<path d="M1380 2243 c0 -30 29 -63 55 -63 18 0 18 2 -6 23 -14 12 -31 31 -37
42 -11 19 -11 19 -12 -2z"/>
<path d="M1440 2222 c0 -11 46 -32 54 -25 3 3 1 12 -5 20 -13 14 -49 18 -49 5z"/>
<path d="M1025 2147 c-4 -8 -20 -20 -37 -26 -16 -6 -27 -15 -23 -21 10 -16 28
-12 60 14 24 19 27 27 18 37 -10 10 -14 9 -18 -4z"/>
<path d="M1086 2134 c-4 -9 -4 -19 -2 -21 8 -8 26 8 26 23 0 19 -16 18 -24 -2z"/>
<path d="M1920 2021 c0 -11 4 -22 9 -25 11 -7 23 22 15 35 -9 16 -24 10 -24
-10z"/>
<path d="M2030 1996 c0 -9 5 -16 10 -16 6 0 10 4 10 9 0 6 -4 13 -10 16 -5 3
-10 -1 -10 -9z"/>
<path d="M2070 1995 c7 -8 17 -15 22 -15 6 0 5 7 -2 15 -7 8 -17 15 -22 15 -6
0 -5 -7 2 -15z"/>
<path d="M2155 2000 c3 -5 8 -10 11 -10 2 0 4 5 4 10 0 6 -5 10 -11 10 -5 0
-7 -4 -4 -10z"/>
<path d="M2196 1955 c14 -21 15 -28 4 -35 -10 -6 -8 -11 9 -19 11 -7 21 -17
21 -24 0 -21 24 -66 38 -72 18 -7 15 16 -8 50 -32 49 -37 59 -46 89 -5 16 -15
31 -22 34 -10 3 -9 -4 4 -23z"/>
<path d="M1895 1937 c-10 -40 0 -56 15 -24 10 20 11 30 2 39 -8 8 -13 4 -17
-15z"/>
<path d="M2010 1935 c0 -8 5 -15 10 -15 6 0 10 7 10 15 0 8 -4 15 -10 15 -5 0
-10 -7 -10 -15z"/>
<path d="M1061 1914 c0 -11 3 -14 6 -6 3 7 2 16 -1 19 -3 4 -6 -2 -5 -13z"/>
<path d="M1864 1902 c3 -17 1 -22 -9 -18 -7 2 -16 -2 -19 -10 -5 -12 -1 -14
17 -8 31 9 32 11 18 36 l-12 23 5 -23z"/>
<path d="M1970 1912 c0 -4 4 -12 9 -17 5 -6 11 -19 13 -30 5 -20 5 -20 13 -1
6 13 4 21 -3 24 -7 2 -12 10 -12 18 0 8 -4 14 -10 14 -5 0 -10 -4 -10 -8z"/>
<path d="M2166 1885 c4 -8 8 -15 10 -15 2 0 4 7 4 15 0 8 -4 15 -10 15 -5 0
-7 -7 -4 -15z"/>
<path d="M1789 1834 c-5 -15 -7 -29 -5 -32 10 -9 36 20 36 39 0 28 -19 23 -31
-7z"/>
<path d="M2216 1819 c7 -24 7 -29 2 -63 -4 -27 19 -31 24 -4 6 34 -5 81 -21
86 -10 3 -11 -2 -5 -19z"/>
<path d="M1996 1814 c-9 -22 -8 -24 9 -18 8 4 15 12 15 20 0 19 -16 18 -24 -2z"/>
<path d="M2180 1799 c0 -11 4 -18 10 -14 5 3 7 12 3 20 -7 21 -13 19 -13 -6z"/>
<path d="M1695 1770 c-21 -24 -15 -35 14 -25 12 3 21 15 21 26 0 24 -12 24
-35 -1z"/>
<path d="M2161 1754 c0 -11 3 -14 6 -6 3 7 2 16 -1 19 -3 4 -6 -2 -5 -13z"/>
<path d="M1200 1750 c0 -5 5 -10 11 -10 5 0 7 5 4 10 -3 6 -8 10 -11 10 -2 0
-4 -4 -4 -10z"/>
<path d="M1390 1750 c0 -5 4 -10 9 -10 6 0 13 5 16 10 3 6 -1 10 -9 10 -9 0
-16 -4 -16 -10z"/>
<path d="M2041 1753 c0 -6 -4 -20 -7 -30 -5 -14 -4 -15 5 -7 7 7 11 20 8 30
-3 11 -5 14 -6 7z"/>
<path d="M1640 1739 c0 -5 5 -7 10 -4 6 3 10 8 10 11 0 2 -4 4 -10 4 -5 0 -10
-5 -10 -11z"/>
<path d="M1204 1709 c-5 -9 32 -21 71 -23 17 -1 44 -5 60 -9 27 -7 28 -6 8 4
-13 7 -23 16 -23 21 0 4 -11 6 -25 2 -14 -3 -25 -2 -25 3 0 11 -59 12 -66 2z"/>
<path d="M1516 1696 c6 -16 54 -39 63 -31 8 9 -37 45 -55 45 -7 0 -11 -6 -8
-14z"/>
<path d="M1425 1690 c3 -5 8 -10 11 -10 2 0 4 5 4 10 0 6 -5 10 -11 10 -5 0
-7 -4 -4 -10z"/>
<path d="M1473 1639 c14 -8 22 -8 30 0 8 8 3 11 -18 11 -26 -1 -28 -2 -12 -11z"/>
<path d="M1670 1399 c7 -11 14 -19 16 -16 7 7 -7 37 -17 37 -6 0 -5 -9 1 -21z"/>
<path d="M1650 1317 c0 -4 4 -15 9 -25 6 -9 12 -29 16 -44 3 -16 9 -28 14 -28
13 0 -7 71 -25 90 -8 8 -14 11 -14 7z"/>
<path d="M178 2343 c6 -2 18 -2 25 0 6 3 1 5 -13 5 -14 0 -19 -2 -12 -5z"/>
<path d="M310 2220 c0 -53 48 -82 69 -41 13 24 -4 48 -41 57 -24 5 -28 3 -28
-16z"/>
<path d="M3047 1283 c-17 -17 -6 -54 19 -63 38 -15 44 -13 44 14 0 38 -42 71
-63 49z"/>
<path d="M3220 1100 c19 -13 30 -13 30 0 0 6 -10 10 -22 10 -19 0 -20 -2 -8
-10z"/>
<path d="M2170 1190 c-6 -11 -8 -20 -5 -20 14 0 45 21 45 30 0 18 -29 10 -40
-10z"/>
<path d="M2481 1014 c0 -11 3 -14 6 -6 3 7 2 16 -1 19 -3 4 -6 -2 -5 -13z"/>
<path d="M1266 804 c-4 -10 -2 -22 3 -27 15 -15 46 -3 46 18 0 26 -40 33 -49
9z"/>
<path d="M2478 785 c-4 -4 -4 -14 -1 -23 4 -10 2 -13 -5 -8 -7 4 -12 2 -12 -3
0 -16 20 -13 26 4 7 17 1 39 -8 30z"/>
<path d="M861 504 c-22 -36 -41 -69 -41 -75 0 -21 42 -7 79 26 47 43 61 83 35
102 -10 7 -21 13 -25 13 -4 0 -25 -30 -48 -66z"/>
<path d="M1141 436 c-46 -74 -59 -146 -25 -146 25 0 84 113 84 161 0 31 -36
22 -59 -15z"/>
<path d="M1888 373 c-13 -3 -18 -14 -18 -37 0 -18 3 -35 6 -39 10 -10 53 15
60 35 5 18 -11 49 -25 47 -3 -1 -14 -3 -23 -6z"/>
<path d="M1815 141 c-3 -5 -1 -12 5 -16 5 -3 10 1 10 9 0 18 -6 21 -15 7z"/>
</g>
</svg>
